<mxfile host="app.diagrams.net" modified="2023-04-22T10:31:46.678Z" agent="Mozilla/5.0 (X11; Ubuntu; Linux x86_64; rv:109.0) Gecko/20100101 Firefox/112.0" etag="YZrJa_eRIza2a9WlqPaS" version="21.1.7" type="device">
  <diagram name="Page-1" id="b-dHjkxai6x0mcIAG6q5">
    <mxGraphModel dx="573" dy="366" grid="1" gridSize="10" guides="1" tooltips="1" connect="1" arrows="1" fold="1" page="1" pageScale="1" pageWidth="850" pageHeight="1100" math="0" shadow="0">
      <root>
        <mxCell id="0" />
        <mxCell id="1" parent="0" />
        <mxCell id="xdDf4xuMvxz0QS6Lm13J-1" value="Movie list" style="text;html=1;strokeColor=none;fillColor=none;align=center;verticalAlign=middle;whiteSpace=wrap;rounded=0;fontSize=14;fontStyle=1" parent="1" vertex="1">
          <mxGeometry x="926.5" y="280" width="75" height="30" as="geometry" />
        </mxCell>
        <mxCell id="xdDf4xuMvxz0QS6Lm13J-53" value="Use Case 1" style="text;html=1;strokeColor=none;fillColor=none;align=center;verticalAlign=middle;whiteSpace=wrap;rounded=0;fontSize=14;fontStyle=1" parent="1" vertex="1">
          <mxGeometry x="765.5" y="242" width="75" height="30" as="geometry" />
        </mxCell>
        <mxCell id="xdDf4xuMvxz0QS6Lm13J-54" value="customer" style="shape=umlActor;verticalLabelPosition=bottom;verticalAlign=top;html=1;outlineConnect=0;fontSize=13;fontStyle=1" parent="1" vertex="1">
          <mxGeometry x="770" y="300" width="67" height="128" as="geometry" />
        </mxCell>
        <mxCell id="xdDf4xuMvxz0QS6Lm13J-58" value="" style="endArrow=classic;html=1;rounded=0;fontSize=13;startSize=8;endSize=8;curved=1;exitX=0.5;exitY=0.5;exitDx=0;exitDy=0;exitPerimeter=0;fontStyle=1" parent="1" source="xdDf4xuMvxz0QS6Lm13J-54" target="xdDf4xuMvxz0QS6Lm13J-59" edge="1">
          <mxGeometry width="50" height="50" relative="1" as="geometry">
            <mxPoint x="870" y="280" as="sourcePoint" />
            <mxPoint x="900" y="310" as="targetPoint" />
          </mxGeometry>
        </mxCell>
        <mxCell id="xdDf4xuMvxz0QS6Lm13J-59" value="" style="ellipse;whiteSpace=wrap;html=1;fontSize=13;fontStyle=1" parent="1" vertex="1">
          <mxGeometry x="922.5" y="326" width="100" height="73" as="geometry" />
        </mxCell>
        <mxCell id="xdDf4xuMvxz0QS6Lm13J-60" value="View Available Movies" style="text;html=1;strokeColor=none;fillColor=none;align=center;verticalAlign=middle;whiteSpace=wrap;rounded=0;fontSize=13;fontStyle=1" parent="1" vertex="1">
          <mxGeometry x="938.75" y="347.5" width="67.5" height="30" as="geometry" />
        </mxCell>
        <mxCell id="xdDf4xuMvxz0QS6Lm13J-75" value="food court" style="text;html=1;strokeColor=none;fillColor=none;align=center;verticalAlign=middle;whiteSpace=wrap;rounded=0;fontSize=14;fontStyle=1" parent="1" vertex="1">
          <mxGeometry x="1160" y="360" width="75" height="30" as="geometry" />
        </mxCell>
        <mxCell id="xdDf4xuMvxz0QS6Lm13J-90" value="financial report" style="text;html=1;strokeColor=none;fillColor=none;align=center;verticalAlign=middle;whiteSpace=wrap;rounded=0;fontSize=14;fontStyle=1" parent="1" vertex="1">
          <mxGeometry x="180.5" y="599.5" width="75" height="30" as="geometry" />
        </mxCell>
        <mxCell id="xdDf4xuMvxz0QS6Lm13J-91" value="Cinema System" style="shape=umlActor;verticalLabelPosition=bottom;verticalAlign=top;html=1;outlineConnect=0;fontSize=13;fontStyle=1" parent="1" vertex="1">
          <mxGeometry x="184" y="689.5" width="67" height="128" as="geometry" />
        </mxCell>
        <mxCell id="xdDf4xuMvxz0QS6Lm13J-98" value="" style="ellipse;whiteSpace=wrap;html=1;fontSize=13;fontStyle=1" parent="1" vertex="1">
          <mxGeometry x="326" y="717" width="100" height="73" as="geometry" />
        </mxCell>
        <mxCell id="xdDf4xuMvxz0QS6Lm13J-99" value="calculate net profit" style="text;html=1;strokeColor=none;fillColor=none;align=center;verticalAlign=middle;whiteSpace=wrap;rounded=0;fontSize=13;fontStyle=1" parent="1" vertex="1">
          <mxGeometry x="347" y="740" width="60" height="30" as="geometry" />
        </mxCell>
        <mxCell id="xdDf4xuMvxz0QS6Lm13J-100" value="" style="endArrow=classic;html=1;rounded=0;fontSize=13;startSize=8;endSize=8;curved=1;exitX=0.5;exitY=0.5;exitDx=0;exitDy=0;exitPerimeter=0;fontStyle=1;entryX=0;entryY=0.5;entryDx=0;entryDy=0;" parent="1" source="xdDf4xuMvxz0QS6Lm13J-91" target="xdDf4xuMvxz0QS6Lm13J-98" edge="1">
          <mxGeometry width="50" height="50" relative="1" as="geometry">
            <mxPoint x="218.5" y="790" as="sourcePoint" />
            <mxPoint x="336.5" y="790" as="targetPoint" />
          </mxGeometry>
        </mxCell>
        <mxCell id="rF4oyjS_1UAanRDzCKSS-1" value="" style="endArrow=block;endSize=16;endFill=0;html=1;rounded=0;fontSize=12;curved=1;" parent="1" edge="1">
          <mxGeometry x="-0.5385" y="-70" width="160" relative="1" as="geometry">
            <mxPoint x="740" y="493" as="sourcePoint" />
            <mxPoint x="770" y="433" as="targetPoint" />
            <mxPoint as="offset" />
          </mxGeometry>
        </mxCell>
        <mxCell id="rF4oyjS_1UAanRDzCKSS-10" value="" style="endArrow=classic;html=1;rounded=0;fontSize=13;startSize=8;endSize=8;curved=1;fontStyle=1;entryX=-0.024;entryY=0.429;entryDx=0;entryDy=0;entryPerimeter=0;exitX=0.5;exitY=0.5;exitDx=0;exitDy=0;exitPerimeter=0;" parent="1" source="rF4oyjS_1UAanRDzCKSS-31" target="rF4oyjS_1UAanRDzCKSS-33" edge="1">
          <mxGeometry width="50" height="50" relative="1" as="geometry">
            <mxPoint x="910" y="540" as="sourcePoint" />
            <mxPoint x="1040.4999999999977" y="598.5000000000001" as="targetPoint" />
          </mxGeometry>
        </mxCell>
        <mxCell id="rF4oyjS_1UAanRDzCKSS-11" value="" style="ellipse;whiteSpace=wrap;html=1;fontSize=13;fontStyle=1" parent="1" vertex="1">
          <mxGeometry x="990" y="475" width="100" height="84" as="geometry" />
        </mxCell>
        <mxCell id="rF4oyjS_1UAanRDzCKSS-12" value="Order Ticket" style="text;html=1;strokeColor=none;fillColor=none;align=center;verticalAlign=middle;whiteSpace=wrap;rounded=0;fontSize=13;fontStyle=1" parent="1" vertex="1">
          <mxGeometry x="1010.5" y="496.5" width="59.5" height="41.5" as="geometry" />
        </mxCell>
        <mxCell id="rF4oyjS_1UAanRDzCKSS-13" value="" style="ellipse;whiteSpace=wrap;html=1;fontSize=13;fontStyle=1" parent="1" vertex="1">
          <mxGeometry x="989.5" y="635" width="100" height="84" as="geometry" />
        </mxCell>
        <mxCell id="rF4oyjS_1UAanRDzCKSS-14" value="Login" style="text;html=1;strokeColor=none;fillColor=none;align=center;verticalAlign=middle;whiteSpace=wrap;rounded=0;fontSize=13;fontStyle=1" parent="1" vertex="1">
          <mxGeometry x="1009.5" y="656.5" width="58" height="41" as="geometry" />
        </mxCell>
        <mxCell id="rF4oyjS_1UAanRDzCKSS-15" value="" style="endArrow=classic;html=1;rounded=0;fontSize=13;startSize=8;endSize=8;curved=1;exitX=0.5;exitY=0.5;exitDx=0;exitDy=0;exitPerimeter=0;fontStyle=1;entryX=0;entryY=0.5;entryDx=0;entryDy=0;" parent="1" source="rF4oyjS_1UAanRDzCKSS-31" target="rF4oyjS_1UAanRDzCKSS-13" edge="1">
          <mxGeometry width="50" height="50" relative="1" as="geometry">
            <mxPoint x="904.7499999999998" y="583.5" as="sourcePoint" />
            <mxPoint x="1041" y="635" as="targetPoint" />
          </mxGeometry>
        </mxCell>
        <mxCell id="rF4oyjS_1UAanRDzCKSS-18" value="New Customer" style="shape=umlActor;verticalLabelPosition=bottom;verticalAlign=top;html=1;outlineConnect=0;fontSize=13;fontStyle=1" parent="1" vertex="1">
          <mxGeometry x="690" y="480" width="67" height="128" as="geometry" />
        </mxCell>
        <mxCell id="rF4oyjS_1UAanRDzCKSS-19" value="" style="endArrow=classic;html=1;rounded=0;fontSize=13;startSize=8;endSize=8;curved=1;exitX=0.5;exitY=0.5;exitDx=0;exitDy=0;exitPerimeter=0;fontStyle=1" parent="1" source="rF4oyjS_1UAanRDzCKSS-18" target="rF4oyjS_1UAanRDzCKSS-20" edge="1">
          <mxGeometry width="50" height="50" relative="1" as="geometry">
            <mxPoint x="430" y="555" as="sourcePoint" />
            <mxPoint x="526" y="501" as="targetPoint" />
          </mxGeometry>
        </mxCell>
        <mxCell id="rF4oyjS_1UAanRDzCKSS-20" value="" style="ellipse;whiteSpace=wrap;html=1;fontSize=13;fontStyle=1" parent="1" vertex="1">
          <mxGeometry x="547.5" y="508" width="100" height="73" as="geometry" />
        </mxCell>
        <mxCell id="rF4oyjS_1UAanRDzCKSS-21" value="Register" style="text;html=1;strokeColor=none;fillColor=none;align=center;verticalAlign=middle;whiteSpace=wrap;rounded=0;fontSize=13;fontStyle=1" parent="1" vertex="1">
          <mxGeometry x="563.75" y="529.5" width="67.5" height="30" as="geometry" />
        </mxCell>
        <mxCell id="rF4oyjS_1UAanRDzCKSS-30" value="" style="endArrow=block;endSize=16;endFill=0;html=1;rounded=0;fontSize=12;curved=1;entryX=1;entryY=1;entryDx=0;entryDy=0;entryPerimeter=0;exitX=0.25;exitY=0.1;exitDx=0;exitDy=0;exitPerimeter=0;" parent="1" source="rF4oyjS_1UAanRDzCKSS-31" target="xdDf4xuMvxz0QS6Lm13J-54" edge="1">
          <mxGeometry x="-0.5385" y="-70" width="160" relative="1" as="geometry">
            <mxPoint x="1002.5" y="493" as="sourcePoint" />
            <mxPoint x="1032.5" y="433" as="targetPoint" />
            <mxPoint as="offset" />
          </mxGeometry>
        </mxCell>
        <mxCell id="rF4oyjS_1UAanRDzCKSS-31" value="Registered Customer" style="shape=umlActor;verticalLabelPosition=bottom;verticalAlign=top;html=1;outlineConnect=0;fontSize=13;fontStyle=1" parent="1" vertex="1">
          <mxGeometry x="871.25" y="471.5" width="67" height="128" as="geometry" />
        </mxCell>
        <mxCell id="rF4oyjS_1UAanRDzCKSS-32" value="" style="endArrow=classic;html=1;rounded=0;fontSize=13;startSize=8;endSize=8;curved=1;fontStyle=1;exitX=0.5;exitY=0.5;exitDx=0;exitDy=0;exitPerimeter=0;entryX=-0.043;entryY=0.586;entryDx=0;entryDy=0;entryPerimeter=0;" parent="1" source="rF4oyjS_1UAanRDzCKSS-31" target="rF4oyjS_1UAanRDzCKSS-11" edge="1">
          <mxGeometry width="50" height="50" relative="1" as="geometry">
            <mxPoint x="904.7499999999998" y="582.5" as="sourcePoint" />
            <mxPoint x="989.0006294493533" y="504.3168521225251" as="targetPoint" />
          </mxGeometry>
        </mxCell>
        <mxCell id="rF4oyjS_1UAanRDzCKSS-33" value="" style="ellipse;whiteSpace=wrap;html=1;fontSize=13;fontStyle=1" parent="1" vertex="1">
          <mxGeometry x="990" y="561" width="100" height="73" as="geometry" />
        </mxCell>
        <mxCell id="rF4oyjS_1UAanRDzCKSS-34" value="Order Food" style="text;html=1;strokeColor=none;fillColor=none;align=center;verticalAlign=middle;whiteSpace=wrap;rounded=0;fontSize=13;fontStyle=1" parent="1" vertex="1">
          <mxGeometry x="1005.75" y="582.5" width="67.5" height="30" as="geometry" />
        </mxCell>
        <mxCell id="rF4oyjS_1UAanRDzCKSS-40" value="Authentication System" style="shape=umlActor;verticalLabelPosition=bottom;verticalAlign=top;html=1;outlineConnect=0;fontSize=13;fontStyle=1" parent="1" vertex="1">
          <mxGeometry x="1389" y="622.5" width="67" height="128" as="geometry" />
        </mxCell>
        <mxCell id="rF4oyjS_1UAanRDzCKSS-41" value="" style="endArrow=classic;html=1;rounded=0;fontSize=13;startSize=8;endSize=8;curved=1;exitX=0.5;exitY=0.5;exitDx=0;exitDy=0;exitPerimeter=0;fontStyle=1;entryX=1;entryY=0.5;entryDx=0;entryDy=0;" parent="1" source="rF4oyjS_1UAanRDzCKSS-40" target="rF4oyjS_1UAanRDzCKSS-42" edge="1">
          <mxGeometry width="50" height="50" relative="1" as="geometry">
            <mxPoint x="1646" y="541" as="sourcePoint" />
            <mxPoint x="1289" y="653" as="targetPoint" />
          </mxGeometry>
        </mxCell>
        <mxCell id="rF4oyjS_1UAanRDzCKSS-42" value="" style="ellipse;whiteSpace=wrap;html=1;fontSize=13;fontStyle=1" parent="1" vertex="1">
          <mxGeometry x="1210" y="616.5" width="100" height="73" as="geometry" />
        </mxCell>
        <mxCell id="rF4oyjS_1UAanRDzCKSS-43" value="&lt;div style=&quot;font-size: 13px;&quot;&gt;Authenticate&lt;/div&gt;" style="text;html=1;strokeColor=none;fillColor=none;align=center;verticalAlign=middle;whiteSpace=wrap;rounded=0;fontSize=13;fontStyle=1" parent="1" vertex="1">
          <mxGeometry x="1220" y="638" width="80" height="30" as="geometry" />
        </mxCell>
        <mxCell id="rF4oyjS_1UAanRDzCKSS-44" value="" style="endArrow=classic;html=1;rounded=0;exitX=1;exitY=0.5;exitDx=0;exitDy=0;dashed=1;" parent="1" source="rF4oyjS_1UAanRDzCKSS-13" edge="1">
          <mxGeometry width="50" height="50" relative="1" as="geometry">
            <mxPoint x="1089.4999999999973" y="695.9999999999998" as="sourcePoint" />
            <mxPoint x="1210" y="657" as="targetPoint" />
          </mxGeometry>
        </mxCell>
        <mxCell id="rF4oyjS_1UAanRDzCKSS-49" value="&lt;div&gt;&amp;lt;&amp;lt;Include&amp;gt;&amp;gt;&lt;/div&gt;" style="edgeLabel;html=1;align=center;verticalAlign=middle;resizable=0;points=[];rotation=-15;" parent="rF4oyjS_1UAanRDzCKSS-44" vertex="1" connectable="0">
          <mxGeometry x="-0.2268" relative="1" as="geometry">
            <mxPoint y="-2" as="offset" />
          </mxGeometry>
        </mxCell>
        <mxCell id="rF4oyjS_1UAanRDzCKSS-69" value="Bank System" style="shape=umlActor;verticalLabelPosition=bottom;verticalAlign=top;html=1;outlineConnect=0;fontSize=13;fontStyle=1" parent="1" vertex="1">
          <mxGeometry x="1389" y="406" width="67" height="128" as="geometry" />
        </mxCell>
        <mxCell id="rF4oyjS_1UAanRDzCKSS-70" value="" style="endArrow=classic;html=1;rounded=0;fontSize=13;startSize=8;endSize=8;curved=1;exitX=0.5;exitY=0.5;exitDx=0;exitDy=0;exitPerimeter=0;fontStyle=1;entryX=1;entryY=0.5;entryDx=0;entryDy=0;" parent="1" source="rF4oyjS_1UAanRDzCKSS-69" target="rF4oyjS_1UAanRDzCKSS-71" edge="1">
          <mxGeometry width="50" height="50" relative="1" as="geometry">
            <mxPoint x="1646" y="358" as="sourcePoint" />
            <mxPoint x="1289" y="470" as="targetPoint" />
          </mxGeometry>
        </mxCell>
        <mxCell id="rF4oyjS_1UAanRDzCKSS-71" value="" style="ellipse;whiteSpace=wrap;html=1;fontSize=13;fontStyle=1" parent="1" vertex="1">
          <mxGeometry x="1208" y="433.5" width="100" height="73" as="geometry" />
        </mxCell>
        <mxCell id="rF4oyjS_1UAanRDzCKSS-72" value="&lt;div style=&quot;font-size: 13px;&quot;&gt;Check Credit&lt;/div&gt;" style="text;html=1;strokeColor=none;fillColor=none;align=center;verticalAlign=middle;whiteSpace=wrap;rounded=0;fontSize=13;fontStyle=1" parent="1" vertex="1">
          <mxGeometry x="1218" y="455" width="80" height="30" as="geometry" />
        </mxCell>
        <mxCell id="rF4oyjS_1UAanRDzCKSS-73" value="" style="endArrow=classic;html=1;rounded=0;exitX=1;exitY=0.5;exitDx=0;exitDy=0;dashed=1;entryX=0.033;entryY=0.68;entryDx=0;entryDy=0;entryPerimeter=0;" parent="1" source="rF4oyjS_1UAanRDzCKSS-33" target="rF4oyjS_1UAanRDzCKSS-71" edge="1">
          <mxGeometry width="50" height="50" relative="1" as="geometry">
            <mxPoint x="1098" y="537.5" as="sourcePoint" />
            <mxPoint x="1218" y="565.5" as="targetPoint" />
          </mxGeometry>
        </mxCell>
        <mxCell id="rF4oyjS_1UAanRDzCKSS-74" value="&lt;div&gt;&amp;lt;&amp;lt;Include&amp;gt;&amp;gt;&lt;/div&gt;" style="edgeLabel;html=1;align=center;verticalAlign=middle;resizable=0;points=[];rotation=-45;" parent="rF4oyjS_1UAanRDzCKSS-73" vertex="1" connectable="0">
          <mxGeometry x="-0.2268" relative="1" as="geometry">
            <mxPoint y="-2" as="offset" />
          </mxGeometry>
        </mxCell>
        <mxCell id="rF4oyjS_1UAanRDzCKSS-75" value="" style="endArrow=classic;html=1;rounded=0;exitX=1;exitY=0.5;exitDx=0;exitDy=0;dashed=1;entryX=0;entryY=0.607;entryDx=0;entryDy=0;entryPerimeter=0;" parent="1" source="rF4oyjS_1UAanRDzCKSS-11" target="rF4oyjS_1UAanRDzCKSS-71" edge="1">
          <mxGeometry width="50" height="50" relative="1" as="geometry">
            <mxPoint x="1100" y="560" as="sourcePoint" />
            <mxPoint x="1221" y="436" as="targetPoint" />
          </mxGeometry>
        </mxCell>
        <mxCell id="rF4oyjS_1UAanRDzCKSS-76" value="&lt;div&gt;&amp;lt;&amp;lt;Include&amp;gt;&amp;gt;&lt;/div&gt;" style="edgeLabel;html=1;align=center;verticalAlign=middle;resizable=0;points=[];rotation=-15;" parent="rF4oyjS_1UAanRDzCKSS-75" vertex="1" connectable="0">
          <mxGeometry x="-0.2268" relative="1" as="geometry">
            <mxPoint y="-2" as="offset" />
          </mxGeometry>
        </mxCell>
        <mxCell id="rF4oyjS_1UAanRDzCKSS-77" value="" style="ellipse;whiteSpace=wrap;html=1;fontSize=13;fontStyle=1" parent="1" vertex="1">
          <mxGeometry x="988.5" y="400.5" width="100" height="73" as="geometry" />
        </mxCell>
        <mxCell id="rF4oyjS_1UAanRDzCKSS-78" value="&lt;div style=&quot;font-size: 13px;&quot;&gt;Change Seat&lt;br&gt;&lt;/div&gt;" style="text;html=1;strokeColor=none;fillColor=none;align=center;verticalAlign=middle;whiteSpace=wrap;rounded=0;fontSize=13;fontStyle=1" parent="1" vertex="1">
          <mxGeometry x="998.5" y="422" width="80" height="30" as="geometry" />
        </mxCell>
        <mxCell id="rF4oyjS_1UAanRDzCKSS-81" value="" style="endArrow=classic;html=1;rounded=0;fontSize=13;startSize=8;endSize=8;curved=1;fontStyle=1;exitX=0.5;exitY=0.5;exitDx=0;exitDy=0;exitPerimeter=0;entryX=0;entryY=0.5;entryDx=0;entryDy=0;" parent="1" source="rF4oyjS_1UAanRDzCKSS-31" target="rF4oyjS_1UAanRDzCKSS-77" edge="1">
          <mxGeometry width="50" height="50" relative="1" as="geometry">
            <mxPoint x="915" y="545" as="sourcePoint" />
            <mxPoint x="996" y="534" as="targetPoint" />
          </mxGeometry>
        </mxCell>
        <mxCell id="rF4oyjS_1UAanRDzCKSS-82" value="" style="endArrow=classic;html=1;rounded=0;dashed=1;entryX=1;entryY=0.5;entryDx=0;entryDy=0;exitX=-0.016;exitY=0.604;exitDx=0;exitDy=0;exitPerimeter=0;" parent="1" source="rF4oyjS_1UAanRDzCKSS-71" target="rF4oyjS_1UAanRDzCKSS-77" edge="1">
          <mxGeometry width="50" height="50" relative="1" as="geometry">
            <mxPoint x="1210" y="470" as="sourcePoint" />
            <mxPoint x="1170" y="470" as="targetPoint" />
          </mxGeometry>
        </mxCell>
        <mxCell id="rF4oyjS_1UAanRDzCKSS-83" value="&lt;div&gt;&amp;lt;&amp;lt;Extend&amp;gt;&amp;gt;&lt;/div&gt;" style="edgeLabel;html=1;align=center;verticalAlign=middle;resizable=0;points=[];rotation=15;" parent="rF4oyjS_1UAanRDzCKSS-82" vertex="1" connectable="0">
          <mxGeometry x="-0.2268" relative="1" as="geometry">
            <mxPoint y="-2" as="offset" />
          </mxGeometry>
        </mxCell>
        <mxCell id="rF4oyjS_1UAanRDzCKSS-86" value="Employee" style="shape=umlActor;verticalLabelPosition=bottom;verticalAlign=top;html=1;outlineConnect=0;fontSize=13;fontStyle=1" parent="1" vertex="1">
          <mxGeometry x="182" y="381" width="67" height="128" as="geometry" />
        </mxCell>
        <mxCell id="rF4oyjS_1UAanRDzCKSS-87" value="" style="endArrow=classic;html=1;rounded=0;fontSize=13;startSize=8;endSize=8;curved=1;exitX=0.5;exitY=0.5;exitDx=0;exitDy=0;exitPerimeter=0;fontStyle=1" parent="1" source="rF4oyjS_1UAanRDzCKSS-86" target="rF4oyjS_1UAanRDzCKSS-88" edge="1">
          <mxGeometry width="50" height="50" relative="1" as="geometry">
            <mxPoint x="439" y="333" as="sourcePoint" />
            <mxPoint x="296" y="445" as="targetPoint" />
          </mxGeometry>
        </mxCell>
        <mxCell id="rF4oyjS_1UAanRDzCKSS-88" value="" style="ellipse;whiteSpace=wrap;html=1;fontSize=13;fontStyle=1" parent="1" vertex="1">
          <mxGeometry x="334" y="408.5" width="100" height="73" as="geometry" />
        </mxCell>
        <mxCell id="rF4oyjS_1UAanRDzCKSS-89" value="check_id" style="text;html=1;strokeColor=none;fillColor=none;align=center;verticalAlign=middle;whiteSpace=wrap;rounded=0;fontSize=13;fontStyle=1" parent="1" vertex="1">
          <mxGeometry x="354" y="430" width="60" height="30" as="geometry" />
        </mxCell>
        <mxCell id="rF4oyjS_1UAanRDzCKSS-90" value="Use Case 2" style="text;html=1;strokeColor=none;fillColor=none;align=center;verticalAlign=middle;whiteSpace=wrap;rounded=0;fontSize=14;fontStyle=1" parent="1" vertex="1">
          <mxGeometry x="1381" y="360" width="75" height="30" as="geometry" />
        </mxCell>
        <mxCell id="rF4oyjS_1UAanRDzCKSS-91" value="Use Case 3" style="text;html=1;strokeColor=none;fillColor=none;align=center;verticalAlign=middle;whiteSpace=wrap;rounded=0;fontSize=14;fontStyle=1" parent="1" vertex="1">
          <mxGeometry x="1385" y="586.5" width="75" height="30" as="geometry" />
        </mxCell>
        <mxCell id="rF4oyjS_1UAanRDzCKSS-92" value="Use Case 4" style="text;html=1;strokeColor=none;fillColor=none;align=center;verticalAlign=middle;whiteSpace=wrap;rounded=0;fontSize=14;fontStyle=1" parent="1" vertex="1">
          <mxGeometry x="180" y="639.5" width="75" height="30" as="geometry" />
        </mxCell>
        <mxCell id="rF4oyjS_1UAanRDzCKSS-93" value="Use Case 5" style="text;html=1;strokeColor=none;fillColor=none;align=center;verticalAlign=middle;whiteSpace=wrap;rounded=0;fontSize=14;fontStyle=1" parent="1" vertex="1">
          <mxGeometry x="182" y="340" width="75" height="30" as="geometry" />
        </mxCell>
      </root>
    </mxGraphModel>
  </diagram>
</mxfile>
